<?xml version="1.0" encoding="UTF-8" standalone="no"?>
<!DOCTYPE svg PUBLIC "-//W3C//DTD SVG 1.1//EN" "http://www.w3.org/Graphics/SVG/1.1/DTD/svg11.dtd">
<svg width="100%" height="100%" viewBox="0 0 1187 285" version="1.1" xmlns="http://www.w3.org/2000/svg" xmlns:xlink="http://www.w3.org/1999/xlink" xml:space="preserve" xmlns:serif="http://www.serif.com/" style="fill-rule:evenodd;clip-rule:evenodd;stroke-linejoin:round;stroke-miterlimit:2;">
    <g transform="matrix(1,0,0,1,-115.826,-319.235)">
        <g transform="matrix(0.492739,0,0,0.492739,-314.749,-360.614)">
            <path d="M1092.35,1571.76C1030.28,1678.92 948.3,1829.26 915.705,1927.02C914.225,1931.95 911.583,1934.76 908.625,1935.5C905.637,1936.25 902.046,1934.99 898.56,1931.01C884.108,1914.85 877.054,1881.7 894.056,1835.79C934.976,1723.06 1044.36,1525.15 1110.33,1414.09L1110.33,1414.08C1114.4,1407.31 1118.12,1403.8 1121.85,1402.67C1125.74,1401.5 1129.8,1402.74 1134.51,1406.04C1134.52,1406.05 1134.53,1406.06 1134.54,1406.06C1147.17,1415.28 1155.81,1424.65 1161.07,1436.33C1168.88,1453.68 1169.18,1476.2 1163.6,1511.21C1163.6,1511.22 1163.6,1511.23 1163.6,1511.23C1150.61,1588.34 1142.37,1689.15 1136.56,1802.12C1193.74,1674.44 1286.94,1505.43 1348.19,1410.69C1348.19,1410.69 1348.2,1410.68 1348.2,1410.67C1352.06,1404.9 1356.29,1402.96 1360.14,1403.56C1363.9,1404.15 1367.54,1407.3 1370.37,1412.48C1370.38,1412.49 1370.38,1412.51 1370.39,1412.53C1383.08,1437.9 1382.51,1471.78 1344.46,1535.2C1295.25,1616.93 1189.34,1817.09 1140.12,1928.02C1138.2,1932.81 1135.89,1935.56 1132.9,1936.52C1129.96,1937.45 1126.17,1936.7 1121.01,1933.89C1095.55,1920.3 1083.46,1900.03 1079.21,1845.71C1075.13,1795.95 1078.21,1687.28 1092.35,1571.76Z" style="fill-rule:nonzero;"/>
            <path d="M1352.16,1781.71C1339.69,1818.63 1338.18,1849.75 1345.15,1872.07C1352.11,1894.35 1367.59,1907.72 1388.96,1908.93C1416.3,1910.24 1442.3,1900.46 1465.95,1884.81C1501.7,1861.15 1532.06,1824.09 1553.47,1791.23C1555.96,1787.25 1559.29,1785.4 1562.41,1785.53C1565.54,1785.65 1568.68,1787.76 1570.68,1792.23C1571.76,1794.41 1572.35,1798.21 1572.1,1803.11C1571.55,1813.86 1567.1,1830.21 1556.36,1845.72C1521.01,1897.06 1456.2,1935.75 1391.4,1936.6C1348.33,1937.28 1316.55,1920.67 1297.41,1893.56C1268.85,1853.12 1268.48,1789.06 1301.37,1723.79C1334.13,1658.76 1378.14,1617.06 1417.14,1599.34C1443.58,1587.32 1467.78,1586.32 1484.87,1596.23C1484.88,1596.23 1484.89,1596.24 1484.89,1596.24C1505.97,1608.89 1521.14,1621.54 1534.63,1640.09C1540.84,1648.37 1543.55,1661.73 1542.15,1677.62C1540.08,1700.97 1529.16,1729.87 1507.87,1755.71C1482.99,1786.18 1452.57,1806.2 1419.45,1807C1397.93,1807.51 1375.24,1799.93 1352.16,1781.71ZM1360.99,1759.75C1380.3,1771.4 1398.05,1768.88 1413.87,1759.68C1430.37,1750.09 1444.79,1733.36 1456.75,1717.68C1475.25,1693.4 1489.75,1665.09 1492.79,1647.17C1493.41,1643.51 1493.55,1640.31 1493.1,1637.7C1492.71,1635.41 1491.88,1633.61 1490.44,1632.47C1490.43,1632.47 1490.42,1632.46 1490.42,1632.46C1488.6,1630.99 1486.13,1630.38 1483.15,1630.45C1478.17,1630.58 1471.9,1632.62 1464.77,1636.29C1436.14,1651.03 1394.31,1691.95 1367.06,1747.04L1367.06,1747.04C1364.84,1751.48 1362.62,1755.91 1360.99,1759.75Z" style="fill-rule:nonzero;"/>
            <path d="M1867.85,1775.76C1877.88,1686.06 1909.28,1632.07 1933.22,1606.57C1943.8,1595.3 1953.06,1589.55 1958.5,1588.51C1958.52,1588.51 1958.54,1588.51 1958.56,1588.5C1964.84,1587.54 1969.46,1590.61 1972,1596.52C1974.29,1601.88 1974.79,1609.74 1973.05,1618.91C1973.05,1618.92 1973.04,1618.93 1973.04,1618.93C1966.35,1652.42 1952.15,1690.11 1900.24,1778.03L1900.23,1778.03C1866.06,1835.33 1830.95,1881.45 1796.23,1908.83C1772.81,1927.3 1749.51,1937.27 1726.79,1936.6C1691.68,1935.78 1671.19,1905.56 1671.49,1870.85C1658.81,1886.63 1644.38,1901.93 1628.55,1913.32C1611.1,1925.87 1591.94,1933.7 1571.51,1932.42L1571.51,1932.42C1555.47,1931.39 1543.4,1925.58 1534.95,1916.28C1526.54,1907.04 1521.71,1894.3 1520.2,1879.25C1518.23,1859.52 1521.99,1835.76 1530.76,1810.78C1550,1755.59 1590.97,1673.63 1647,1597.53C1650.75,1592.38 1655.05,1590.15 1659.03,1590.15C1663.1,1590.15 1666.97,1592.44 1669.84,1596.72C1690.19,1624.72 1686.26,1661.25 1654.87,1711.31L1654.87,1711.31C1624.89,1758.78 1603.23,1797.92 1586.58,1837.89C1576.75,1861.98 1573,1881.92 1575.73,1893.86C1576.56,1897.5 1578,1900.35 1580.14,1902.23C1582.2,1904.04 1584.9,1904.9 1588.24,1904.75C1588.25,1904.75 1588.26,1904.75 1588.27,1904.75C1601.23,1904.43 1613.71,1895.41 1626.93,1880.36C1647.31,1857.16 1669.18,1819.69 1696.15,1776.23L1696.16,1776.22C1749.61,1691.04 1773.84,1633.42 1801.4,1597.51C1804.01,1594.11 1806.32,1591.58 1808.48,1589.91C1810.91,1588.01 1813.21,1587.15 1815.5,1587.21C1818.42,1587.29 1821.45,1588.91 1824.86,1592.33C1824.91,1592.38 1824.96,1592.43 1825.01,1592.49C1836.92,1607.8 1843.95,1645.24 1823.53,1687.77L1823.53,1687.78C1805.17,1725.33 1763.45,1788.74 1742.59,1832.96C1731.49,1856.39 1726.5,1875.07 1727.32,1888.02C1727.7,1894.12 1729.38,1898.88 1732.43,1902.15C1735.43,1905.36 1739.73,1907.07 1745.25,1907.26C1756.62,1907.58 1771.16,1899.03 1787.42,1883.97C1812.32,1860.89 1840.97,1822.5 1867.85,1775.76Z" style="fill-rule:nonzero;"/>
            <path d="M2116.77,1496.62C2084.44,1493.98 2067.38,1475.73 2061.55,1462.41C2059.15,1457.12 2058.93,1453.25 2060.49,1450.6C2062.06,1447.95 2065.56,1446.27 2071.33,1445.79C2100.41,1443.3 2133.65,1431.85 2166.57,1420.63C2199.8,1409.31 2232.72,1398.23 2260.8,1396.55C2286.79,1395.02 2312.15,1399.37 2331.59,1415.52C2344.57,1426.29 2354.93,1442.31 2361.05,1465.43C2376.24,1521.95 2360.22,1569.19 2331.54,1606.3L2331.54,1606.31C2307.66,1636.78 2264.38,1677.75 2204.09,1704.64C2218.75,1712.3 2231.22,1723.62 2241.48,1738.61L2241.48,1738.62C2259.33,1764.97 2258.68,1815.14 2222.13,1855.09C2185.17,1895.41 2122.17,1924.83 2075.13,1933.23C2042.92,1939.16 2022.59,1938.23 2003.94,1928.9C1987,1920.43 1971.74,1906.04 1960.73,1889.94C1955.6,1882.42 1951.18,1875.71 1948.95,1866.88C1945.64,1853.74 1947.16,1835.81 1958.86,1803.26C1991.98,1710.52 2054.65,1589.86 2116.77,1496.62ZM2084.98,1678.57C2181.8,1655.26 2256.63,1606.41 2296.83,1558.87C2323.59,1527.22 2335.06,1496.27 2326.88,1474C2320.48,1457.38 2303.86,1453.58 2282.83,1455.78C2250.42,1459.17 2207.69,1476.95 2173.46,1487.97C2174.74,1506.42 2168.69,1531.47 2148.11,1569.35C2131.87,1599.39 2108.52,1637.34 2084.98,1678.57ZM2145.89,1724.65C2134.24,1727.13 2122.59,1728.8 2110.95,1730.46C2110.93,1730.46 2110.91,1730.47 2110.89,1730.47C2088.09,1732.91 2071.54,1730.62 2059.73,1725.19C2037.55,1768.01 2017.06,1811.6 2004.71,1852.75C2004.71,1852.75 2004.71,1852.76 2004.71,1852.77C2002.48,1859.87 2001.35,1865.8 2001.33,1870.65C2001.32,1875.18 2002.28,1878.72 2004.32,1881.32C2006.33,1883.89 2009.37,1885.51 2013.38,1886.34C2017.7,1887.23 2023.09,1887.21 2029.54,1886.41C2082.57,1879.78 2153.83,1845.83 2189.46,1801.92C2197.04,1792.5 2202.74,1783.13 2205.84,1774.31C2208.84,1765.76 2209.39,1757.75 2206.71,1750.75C2204.04,1743.76 2198.14,1737.83 2188.44,1733.36C2178.43,1728.74 2164.48,1725.69 2145.89,1724.65Z" style="fill-rule:nonzero;"/>
            <path d="M2448.86,1655.68C2474.48,1651.8 2501.64,1638.72 2531.12,1618C2531.13,1618 2531.14,1617.99 2531.15,1617.98C2542.16,1610.64 2549.52,1609.28 2555.94,1616.6C2564.02,1625.53 2573.15,1639.35 2577.19,1654.44C2581.29,1669.79 2580.17,1686.42 2567.64,1700.68L2567.63,1700.68C2530.24,1743.06 2489.49,1795.37 2476.2,1838.57C2468.35,1864.07 2468.62,1885.74 2475.31,1899.17C2479.55,1907.7 2486.43,1912.79 2495.46,1913.1C2495.47,1913.1 2495.48,1913.1 2495.49,1913.1C2508.12,1913.75 2521.85,1905.97 2535.52,1892.83C2556.52,1872.65 2577.2,1839.8 2593.12,1803.98C2593.13,1803.95 2593.14,1803.93 2593.15,1803.9C2595.17,1799.87 2597.85,1797.78 2600.37,1797.53C2603.01,1797.27 2605.83,1798.86 2607.94,1803.07C2607.95,1803.09 2607.96,1803.11 2607.97,1803.13C2612.25,1812.55 2613.24,1833.11 2603.82,1856.23C2584.35,1905.33 2535.19,1940.79 2490.33,1939.1L2490.32,1939.1C2465.71,1938.07 2447,1928.39 2434.75,1913.1C2416.49,1890.29 2412.59,1854.85 2425.32,1816.65C2442.43,1765.34 2485.48,1710.4 2518.36,1671.97C2485.23,1691.35 2453.5,1697.74 2430.51,1697.93C2398.53,1756.55 2319.24,1873.99 2303.5,1949.4C2303.5,1949.41 2303.49,1949.42 2303.49,1949.42C2302.51,1953.82 2300.4,1957.14 2297.59,1958.36C2294.72,1959.6 2290.87,1958.93 2286.38,1954.45C2286.38,1954.44 2286.37,1954.43 2286.36,1954.43C2261.7,1928.91 2261.45,1889.8 2284.41,1846.43C2303.42,1810.06 2358.39,1732.82 2389.49,1688.3C2371.26,1675.28 2371.39,1651.93 2380.54,1628.3C2390.18,1603.43 2409.72,1578.29 2427,1565.26C2434.68,1559.48 2441.96,1556.1 2447.78,1555.94C2459.08,1555.58 2464.95,1563.59 2466.16,1577.27C2467.79,1595.7 2460.84,1624.85 2448.86,1655.68Z" style="fill-rule:nonzero;"/>
            <path d="M2661.47,1781.71C2649,1818.63 2647.49,1849.75 2654.46,1872.07C2661.42,1894.35 2676.9,1907.72 2698.27,1908.93C2725.61,1910.24 2751.62,1900.46 2775.26,1884.81C2811.01,1861.15 2841.37,1824.09 2862.78,1791.23C2865.27,1787.25 2868.61,1785.4 2871.72,1785.53C2874.85,1785.65 2877.99,1787.76 2879.99,1792.23C2881.07,1794.41 2881.66,1798.21 2881.41,1803.11C2880.86,1813.86 2876.41,1830.21 2865.67,1845.72C2830.32,1897.06 2765.51,1935.75 2700.71,1936.6C2657.64,1937.28 2625.86,1920.67 2606.72,1893.56C2578.16,1853.12 2577.79,1789.06 2610.68,1723.79C2643.44,1658.76 2687.45,1617.06 2726.45,1599.34C2752.89,1587.32 2777.09,1586.32 2794.18,1596.23C2794.19,1596.23 2794.2,1596.24 2794.2,1596.24C2815.28,1608.89 2830.45,1621.54 2843.94,1640.09C2850.15,1648.37 2852.87,1661.73 2851.46,1677.62C2849.39,1700.97 2838.47,1729.87 2817.18,1755.71C2792.3,1786.18 2761.88,1806.2 2728.76,1807C2707.24,1807.51 2684.55,1799.93 2661.47,1781.71ZM2670.3,1759.75C2689.61,1771.4 2707.36,1768.88 2723.18,1759.68C2739.68,1750.09 2754.1,1733.36 2766.06,1717.68C2784.56,1693.4 2799.06,1665.09 2802.1,1647.17C2802.72,1643.51 2802.86,1640.31 2802.41,1637.7C2802.02,1635.41 2801.19,1633.61 2799.75,1632.47C2799.74,1632.47 2799.74,1632.46 2799.73,1632.46C2797.91,1630.99 2795.44,1630.38 2792.46,1630.45C2787.49,1630.58 2781.21,1632.62 2774.08,1636.29C2745.45,1651.03 2703.62,1691.95 2676.37,1747.04L2676.37,1747.04C2674.15,1751.48 2671.93,1755.91 2670.3,1759.75Z" style="fill-rule:nonzero;"/>
            <path d="M3177.16,1775.76C3187.19,1686.06 3218.59,1632.07 3242.53,1606.57C3253.11,1595.3 3262.37,1589.55 3267.81,1588.51C3267.83,1588.51 3267.85,1588.51 3267.87,1588.5C3274.15,1587.54 3278.77,1590.61 3281.31,1596.52C3283.6,1601.88 3284.11,1609.74 3282.36,1618.91C3282.36,1618.92 3282.36,1618.93 3282.35,1618.93C3275.66,1652.42 3261.46,1690.11 3209.55,1778.03L3209.54,1778.03C3175.37,1835.33 3140.26,1881.45 3105.54,1908.83C3082.12,1927.3 3058.82,1937.27 3036.1,1936.6C3001,1935.78 2980.5,1905.56 2980.8,1870.85C2968.12,1886.63 2953.7,1901.93 2937.86,1913.32C2920.41,1925.87 2901.25,1933.7 2880.82,1932.42L2880.82,1932.42C2864.78,1931.39 2852.71,1925.58 2844.26,1916.28C2835.85,1907.04 2831.02,1894.3 2829.52,1879.25C2827.55,1859.52 2831.3,1835.76 2840.07,1810.78C2859.31,1755.59 2900.28,1673.63 2956.31,1597.53C2960.06,1592.38 2964.36,1590.15 2968.35,1590.15C2972.41,1590.15 2976.28,1592.44 2979.15,1596.72C2999.5,1624.72 2995.57,1661.25 2964.18,1711.31L2964.18,1711.31C2934.2,1758.78 2912.55,1797.92 2895.89,1837.89C2886.06,1861.98 2882.31,1881.92 2885.04,1893.86C2885.88,1897.5 2887.31,1900.35 2889.45,1902.23C2891.51,1904.04 2894.22,1904.9 2897.55,1904.75C2897.56,1904.75 2897.57,1904.75 2897.58,1904.75C2910.54,1904.43 2923.02,1895.41 2936.24,1880.36C2956.62,1857.16 2978.49,1819.69 3005.47,1776.23L3005.47,1776.22C3058.92,1691.04 3083.15,1633.42 3110.71,1597.51C3113.32,1594.11 3115.64,1591.58 3117.79,1589.91C3120.23,1588.01 3122.52,1587.15 3124.81,1587.21C3127.74,1587.29 3130.76,1588.91 3134.18,1592.33C3134.23,1592.38 3134.27,1592.43 3134.32,1592.49C3146.23,1607.8 3153.26,1645.24 3132.84,1687.77L3132.84,1687.78C3114.48,1725.33 3072.76,1788.74 3051.9,1832.96C3040.81,1856.39 3035.81,1875.07 3036.63,1888.02C3037.01,1894.12 3038.7,1898.88 3041.74,1902.15C3044.74,1905.36 3049.04,1907.07 3054.56,1907.26C3065.93,1907.58 3080.47,1899.03 3096.73,1883.97C3121.64,1860.89 3150.28,1822.5 3177.16,1775.76Z" style="fill-rule:nonzero;"/>
        </g>
        <g transform="matrix(0.492739,0,0,0.492739,-319.665,-369.614)">
            <path d="M1095.13,1563.51C1080.11,1682.01 1076.77,1794.67 1080.94,1845.57C1085.12,1898.98 1096.8,1919.01 1121.83,1932.36C1131.01,1937.37 1135.18,1935.7 1138.52,1927.35C1187.76,1816.36 1293.74,1616.09 1342.97,1534.31C1380.52,1471.72 1381.36,1438.34 1368.84,1413.31C1363.83,1404.13 1356.32,1401.62 1349.65,1411.64C1287.06,1508.44 1191.1,1682.85 1134.35,1811.36C1140.19,1694.53 1148.54,1590.22 1161.89,1510.94C1171.07,1453.36 1164.39,1430 1133.52,1407.46C1125.17,1401.62 1119.33,1402.46 1111.82,1414.98C1045.89,1525.96 936.576,1723.74 895.686,1836.39C878.996,1881.45 885.672,1914 899.859,1929.85C905.7,1936.53 911.541,1934.86 914.045,1926.52C947.424,1826.38 1032.54,1671.16 1095.13,1563.51Z" style="fill:rgb(224,48,190);fill-rule:nonzero;"/>
            <path d="M1351.32,1778.81C1409.73,1826.38 1465.64,1804.68 1506.53,1754.61C1541.58,1712.05 1548.26,1661.15 1533.24,1641.12C1519.88,1622.76 1504.86,1610.25 1484,1597.73C1442.28,1573.53 1357.16,1616.92 1302.92,1724.57C1248.67,1832.22 1285.39,1936.53 1391.37,1934.86C1455.63,1934.03 1519.88,1895.64 1554.93,1844.74C1569.95,1823.04 1572.46,1799.67 1569.12,1793C1565.78,1785.49 1559.1,1785.49 1554.93,1792.16C1519.05,1847.24 1458.13,1914 1388.87,1910.66C1344.64,1908.16 1324.61,1855.59 1351.32,1778.81ZM1358.83,1760.45C1360.5,1756.28 1363,1751.27 1365.5,1746.27C1404.72,1666.99 1473.99,1616.92 1491.51,1631.11C1503.19,1640.29 1484.83,1683.68 1458.13,1718.73C1433.93,1750.44 1399.72,1786.32 1358.83,1760.45Z" style="fill:rgb(224,48,190);fill-rule:nonzero;"/>
            <path d="M1869.53,1776.31C1824.47,1854.75 1774.4,1909.83 1745.19,1908.99C1721,1908.16 1718.49,1879.79 1741.02,1832.22C1761.88,1787.99 1803.61,1724.57 1821.97,1687.02C1842,1645.29 1835.32,1608.58 1823.64,1593.56C1816.13,1586.05 1811.12,1587.71 1802.77,1598.56C1775.24,1634.45 1751.04,1692.03 1697.63,1777.14C1652.57,1849.74 1621.69,1905.65 1588.31,1906.49C1569.12,1907.32 1568.28,1878.12 1584.97,1837.23C1601.66,1797.17 1623.36,1757.95 1653.4,1710.38C1684.28,1661.15 1688.45,1625.27 1668.42,1597.73C1663.41,1590.22 1655.07,1589.38 1648.39,1598.56C1592.48,1674.5 1551.59,1756.28 1532.4,1811.36C1510.7,1873.11 1519.88,1927.35 1571.62,1930.69C1611.68,1933.19 1646.73,1899.81 1673.43,1865.6C1670.92,1901.48 1690.95,1934.03 1726.84,1934.86C1782.75,1936.53 1842,1872.28 1898.74,1777.14C1950.48,1689.52 1964.66,1651.97 1971.34,1618.59C1974.68,1601.07 1969.67,1588.55 1958.82,1590.22C1941.3,1593.56 1883.72,1648.63 1869.53,1776.31Z" style="fill:rgb(224,48,190);fill-rule:nonzero;"/>
            <path d="M2119.88,1495.09C2057.29,1588.55 1993.87,1710.38 1960.49,1803.85C1941.3,1857.25 1949.64,1870.61 1962.16,1888.96C1973.01,1904.82 1988.03,1919.01 2004.72,1927.35C2023.08,1936.53 2043.11,1937.37 2074.82,1931.52C2121.55,1923.18 2184.14,1893.97 2220.85,1853.92C2256.74,1814.69 2257.57,1765.46 2240.05,1739.59C2229.2,1723.74 2215.85,1712.05 2199.99,1704.54C2261.74,1677.84 2305.97,1636.12 2330.17,1605.24C2358.54,1568.52 2374.4,1521.79 2359.38,1465.88C2344.36,1409.13 2303.47,1395.78 2260.91,1398.29C2205,1401.62 2129.89,1442.51 2071.48,1447.52C2061.47,1448.36 2058.96,1452.53 2063.13,1461.71C2068.98,1475.06 2086.5,1493.42 2119.88,1495.09ZM2081.49,1681.18C2105.69,1638.62 2129.89,1599.4 2146.58,1568.52C2167.45,1530.13 2173.29,1505.1 2171.62,1486.74C2229.2,1468.38 2311.81,1430 2328.5,1473.39C2349.36,1530.13 2246.72,1642.79 2081.49,1681.18ZM2145.75,1722.9C2221.69,1727.07 2221.69,1764.63 2190.81,1803.01C2154.93,1847.24 2083.16,1881.45 2029.76,1888.13C2003.05,1891.47 1993.87,1881.45 2003.05,1852.25C2015.57,1810.52 2036.43,1766.3 2058.96,1722.9C2070.64,1728.74 2087.34,1731.25 2110.7,1728.74C2122.38,1727.07 2134.07,1725.4 2145.75,1722.9Z" style="fill:rgb(224,48,190);fill-rule:nonzero;"/>
            <path d="M2446.16,1657.81C2467.03,1605.24 2473.7,1556.84 2447.83,1557.67C2416.96,1558.51 2344.36,1656.98 2391.92,1687.85C2361.05,1732.08 2305.14,1810.52 2285.94,1847.24C2263.41,1889.8 2263.41,1928.18 2287.61,1953.22C2295.12,1960.73 2300.13,1956.56 2301.8,1949.05C2317.65,1873.11 2397.76,1754.61 2429.47,1696.2C2454.51,1696.2 2490.39,1688.69 2527.11,1664.49C2493.73,1702.87 2445.33,1762.12 2426.97,1817.2C2406.11,1879.79 2430.31,1934.86 2490.39,1937.37C2534.62,1939.03 2583.02,1903.99 2602.21,1855.59C2611.39,1833.05 2610.56,1813.03 2606.39,1803.85C2603.05,1797.17 2598.04,1798.01 2594.7,1804.68C2568,1864.76 2527.94,1916.5 2495.4,1914.83C2471.2,1914 2461.18,1881.45 2474.54,1838.06C2487.89,1794.67 2528.78,1742.1 2566.33,1699.54C2590.53,1672 2570.5,1635.28 2554.65,1617.76C2548.81,1611.08 2542.13,1612.75 2532.12,1619.42C2501.24,1641.12 2472.87,1654.47 2446.16,1657.81Z" style="fill:rgb(224,48,190);fill-rule:nonzero;"/>
            <path d="M2660.63,1778.81C2719.04,1826.38 2774.95,1804.68 2815.84,1754.61C2850.89,1712.05 2857.57,1661.15 2842.55,1641.12C2829.19,1622.76 2814.17,1610.25 2793.31,1597.73C2751.59,1573.53 2666.47,1616.92 2612.23,1724.57C2557.99,1832.22 2594.7,1936.53 2700.68,1934.86C2764.94,1934.03 2829.19,1895.64 2864.24,1844.74C2879.26,1823.04 2881.77,1799.67 2878.43,1793C2875.09,1785.49 2868.41,1785.49 2864.24,1792.16C2828.36,1847.24 2767.44,1914 2698.18,1910.66C2653.95,1908.16 2633.92,1855.59 2660.63,1778.81ZM2668.14,1760.45C2669.81,1756.28 2672.31,1751.27 2674.81,1746.27C2714.03,1666.99 2783.3,1616.92 2800.82,1631.11C2812.5,1640.29 2794.15,1683.68 2767.44,1718.73C2743.24,1750.44 2709.03,1786.32 2668.14,1760.45Z" style="fill:rgb(224,48,190);fill-rule:nonzero;"/>
            <path d="M3178.85,1776.31C3133.78,1854.75 3083.71,1909.83 3054.51,1908.99C3030.31,1908.16 3027.8,1879.79 3050.33,1832.22C3071.2,1787.99 3112.92,1724.57 3131.28,1687.02C3151.31,1645.29 3144.63,1608.58 3132.95,1593.56C3125.44,1586.05 3120.43,1587.71 3112.09,1598.56C3084.55,1634.45 3060.35,1692.03 3006.94,1777.14C2961.88,1849.74 2931,1905.65 2897.62,1906.49C2878.43,1907.32 2877.59,1878.12 2894.28,1837.23C2910.97,1797.17 2932.67,1757.95 2962.71,1710.38C2993.59,1661.15 2997.76,1625.27 2977.73,1597.73C2972.73,1590.22 2964.38,1589.38 2957.7,1598.56C2901.8,1674.5 2860.91,1756.28 2841.71,1811.36C2820.01,1873.11 2829.19,1927.35 2880.93,1930.69C2920.99,1933.19 2956.04,1899.81 2982.74,1865.6C2980.24,1901.48 3000.26,1934.03 3036.15,1934.86C3092.06,1936.53 3151.31,1872.28 3208.05,1777.14C3259.79,1689.52 3273.98,1651.97 3280.65,1618.59C3283.99,1601.07 3278.98,1588.55 3268.14,1590.22C3250.61,1593.56 3193.03,1648.63 3178.85,1776.31Z" style="fill:rgb(224,48,190);fill-rule:nonzero;"/>
        </g>
        <g transform="matrix(0.492739,0,0,0.492739,-319.665,-361.398)">
            <path d="M1095.13,1563.51C1080.11,1682.01 1076.77,1794.67 1080.94,1845.57C1085.12,1898.98 1096.8,1919.01 1121.83,1932.36C1131.01,1937.37 1135.18,1935.7 1138.52,1927.35C1187.76,1816.36 1293.74,1616.09 1342.97,1534.31C1380.52,1471.72 1381.36,1438.34 1368.84,1413.31C1363.83,1404.13 1356.32,1401.62 1349.65,1411.64C1287.06,1508.44 1191.1,1682.85 1134.35,1811.36C1140.19,1694.53 1148.54,1590.22 1161.89,1510.94C1171.07,1453.36 1164.39,1430 1133.52,1407.46C1125.17,1401.62 1119.33,1402.46 1111.82,1414.98C1045.89,1525.96 936.576,1723.74 895.686,1836.39C878.996,1881.45 885.672,1914 899.859,1929.85C905.7,1936.53 911.541,1934.86 914.045,1926.52C947.424,1826.38 1032.54,1671.16 1095.13,1563.51Z" style="fill:rgb(246,255,0);fill-rule:nonzero;"/>
            <path d="M1351.32,1778.81C1409.73,1826.38 1465.64,1804.68 1506.53,1754.61C1541.58,1712.05 1548.26,1661.15 1533.24,1641.12C1519.88,1622.76 1504.86,1610.25 1484,1597.73C1442.28,1573.53 1357.16,1616.92 1302.92,1724.57C1248.67,1832.22 1285.39,1936.53 1391.37,1934.86C1455.63,1934.03 1519.88,1895.64 1554.93,1844.74C1569.95,1823.04 1572.46,1799.67 1569.12,1793C1565.78,1785.49 1559.1,1785.49 1554.93,1792.16C1519.05,1847.24 1458.13,1914 1388.87,1910.66C1344.64,1908.16 1324.61,1855.59 1351.32,1778.81ZM1358.83,1760.45C1360.5,1756.28 1363,1751.27 1365.5,1746.27C1404.72,1666.99 1473.99,1616.92 1491.51,1631.11C1503.19,1640.29 1484.83,1683.68 1458.13,1718.73C1433.93,1750.44 1399.72,1786.32 1358.83,1760.45Z" style="fill:rgb(246,255,0);fill-rule:nonzero;"/>
            <path d="M1869.53,1776.31C1824.47,1854.75 1774.4,1909.83 1745.19,1908.99C1721,1908.16 1718.49,1879.79 1741.02,1832.22C1761.88,1787.99 1803.61,1724.57 1821.97,1687.02C1842,1645.29 1835.32,1608.58 1823.64,1593.56C1816.13,1586.05 1811.12,1587.71 1802.77,1598.56C1775.24,1634.45 1751.04,1692.03 1697.63,1777.14C1652.57,1849.74 1621.69,1905.65 1588.31,1906.49C1569.12,1907.32 1568.28,1878.12 1584.97,1837.23C1601.66,1797.17 1623.36,1757.95 1653.4,1710.38C1684.28,1661.15 1688.45,1625.27 1668.42,1597.73C1663.41,1590.22 1655.07,1589.38 1648.39,1598.56C1592.48,1674.5 1551.59,1756.28 1532.4,1811.36C1510.7,1873.11 1519.88,1927.35 1571.62,1930.69C1611.68,1933.19 1646.73,1899.81 1673.43,1865.6C1670.92,1901.48 1690.95,1934.03 1726.84,1934.86C1782.75,1936.53 1842,1872.28 1898.74,1777.14C1950.48,1689.52 1964.66,1651.97 1971.34,1618.59C1974.68,1601.07 1969.67,1588.55 1958.82,1590.22C1941.3,1593.56 1883.72,1648.63 1869.53,1776.31Z" style="fill:rgb(246,255,0);fill-rule:nonzero;"/>
            <path d="M2119.88,1495.09C2057.29,1588.55 1993.87,1710.38 1960.49,1803.85C1941.3,1857.25 1949.64,1870.61 1962.16,1888.96C1973.01,1904.82 1988.03,1919.01 2004.72,1927.35C2023.08,1936.53 2043.11,1937.37 2074.82,1931.52C2121.55,1923.18 2184.14,1893.97 2220.85,1853.92C2256.74,1814.69 2257.57,1765.46 2240.05,1739.59C2229.2,1723.74 2215.85,1712.05 2199.99,1704.54C2261.74,1677.84 2305.97,1636.12 2330.17,1605.24C2358.54,1568.52 2374.4,1521.79 2359.38,1465.88C2344.36,1409.13 2303.47,1395.78 2260.91,1398.29C2205,1401.62 2129.89,1442.51 2071.48,1447.52C2061.47,1448.36 2058.96,1452.53 2063.13,1461.71C2068.98,1475.06 2086.5,1493.42 2119.88,1495.09ZM2081.49,1681.18C2105.69,1638.62 2129.89,1599.4 2146.58,1568.52C2167.45,1530.13 2173.29,1505.1 2171.62,1486.74C2229.2,1468.38 2311.81,1430 2328.5,1473.39C2349.36,1530.13 2246.72,1642.79 2081.49,1681.18ZM2145.75,1722.9C2221.69,1727.07 2221.69,1764.63 2190.81,1803.01C2154.93,1847.24 2083.16,1881.45 2029.76,1888.13C2003.05,1891.47 1993.87,1881.45 2003.05,1852.25C2015.57,1810.52 2036.43,1766.3 2058.96,1722.9C2070.64,1728.74 2087.34,1731.25 2110.7,1728.74C2122.38,1727.07 2134.07,1725.4 2145.75,1722.9Z" style="fill:rgb(246,255,0);fill-rule:nonzero;"/>
            <path d="M2446.16,1657.81C2467.03,1605.24 2473.7,1556.84 2447.83,1557.67C2416.96,1558.51 2344.36,1656.98 2391.92,1687.85C2361.05,1732.08 2305.14,1810.52 2285.94,1847.24C2263.41,1889.8 2263.41,1928.18 2287.61,1953.22C2295.12,1960.73 2300.13,1956.56 2301.8,1949.05C2317.65,1873.11 2397.76,1754.61 2429.47,1696.2C2454.51,1696.2 2490.39,1688.69 2527.11,1664.49C2493.73,1702.87 2445.33,1762.12 2426.97,1817.2C2406.11,1879.79 2430.31,1934.86 2490.39,1937.37C2534.62,1939.03 2583.02,1903.99 2602.21,1855.59C2611.39,1833.05 2610.56,1813.03 2606.39,1803.85C2603.05,1797.17 2598.04,1798.01 2594.7,1804.68C2568,1864.76 2527.94,1916.5 2495.4,1914.83C2471.2,1914 2461.18,1881.45 2474.54,1838.06C2487.89,1794.67 2528.78,1742.1 2566.33,1699.54C2590.53,1672 2570.5,1635.28 2554.65,1617.76C2548.81,1611.08 2542.13,1612.75 2532.12,1619.42C2501.24,1641.12 2472.87,1654.47 2446.16,1657.81Z" style="fill:rgb(246,255,0);fill-rule:nonzero;"/>
            <path d="M2660.63,1778.81C2719.04,1826.38 2774.95,1804.68 2815.84,1754.61C2850.89,1712.05 2857.57,1661.15 2842.55,1641.12C2829.19,1622.76 2814.17,1610.25 2793.31,1597.73C2751.59,1573.53 2666.47,1616.92 2612.23,1724.57C2557.99,1832.22 2594.7,1936.53 2700.68,1934.86C2764.94,1934.03 2829.19,1895.64 2864.24,1844.74C2879.26,1823.04 2881.77,1799.67 2878.43,1793C2875.09,1785.49 2868.41,1785.49 2864.24,1792.16C2828.36,1847.24 2767.44,1914 2698.18,1910.66C2653.95,1908.16 2633.92,1855.59 2660.63,1778.81ZM2668.14,1760.45C2669.81,1756.28 2672.31,1751.27 2674.81,1746.27C2714.03,1666.99 2783.3,1616.92 2800.82,1631.11C2812.5,1640.29 2794.15,1683.68 2767.44,1718.73C2743.24,1750.44 2709.03,1786.32 2668.14,1760.45Z" style="fill:rgb(246,255,0);fill-rule:nonzero;"/>
            <path d="M3178.85,1776.31C3133.78,1854.75 3083.71,1909.83 3054.51,1908.99C3030.31,1908.16 3027.8,1879.79 3050.33,1832.22C3071.2,1787.99 3112.92,1724.57 3131.28,1687.02C3151.31,1645.29 3144.63,1608.58 3132.95,1593.56C3125.44,1586.05 3120.43,1587.71 3112.09,1598.56C3084.55,1634.45 3060.35,1692.03 3006.94,1777.14C2961.88,1849.74 2931,1905.65 2897.62,1906.49C2878.43,1907.32 2877.59,1878.12 2894.28,1837.23C2910.97,1797.17 2932.67,1757.95 2962.71,1710.38C2993.59,1661.15 2997.76,1625.27 2977.73,1597.73C2972.73,1590.22 2964.38,1589.38 2957.7,1598.56C2901.8,1674.5 2860.91,1756.28 2841.71,1811.36C2820.01,1873.11 2829.19,1927.35 2880.93,1930.69C2920.99,1933.19 2956.04,1899.81 2982.74,1865.6C2980.24,1901.48 3000.26,1934.03 3036.15,1934.86C3092.06,1936.53 3151.31,1872.28 3208.05,1777.14C3259.79,1689.52 3273.98,1651.97 3280.65,1618.59C3283.99,1601.07 3278.98,1588.55 3268.14,1590.22C3250.61,1593.56 3193.03,1648.63 3178.85,1776.31Z" style="fill:rgb(246,255,0);fill-rule:nonzero;"/>
        </g>
        <g transform="matrix(0.492739,0,0,0.492739,-320.665,-365.398)">
            <path d="M905.333,1920.43C894.397,1905.54 891.282,1877.64 905.249,1839.93C905.257,1839.91 905.264,1839.89 905.272,1839.87C945.994,1727.68 1054.91,1530.75 1120.57,1420.21C1121.76,1418.23 1122.87,1416.62 1123.97,1415.38C1124.28,1415.04 1124.74,1414.63 1125.06,1414.36C1125.66,1414.65 1126.77,1415.21 1127.56,1415.75C1155.35,1436.06 1160.08,1457.47 1151.82,1509.3C1138.42,1588.88 1130.03,1693.58 1124.16,1810.85C1123.92,1815.76 1127.21,1820.14 1132,1821.28C1136.78,1822.41 1141.69,1819.97 1143.68,1815.48C1200.21,1687.45 1295.8,1513.72 1358.16,1417.25C1358.33,1417 1358.53,1416.74 1358.73,1416.49C1359.11,1416.98 1359.51,1417.53 1359.81,1418.04C1371.25,1441.12 1368.75,1471.52 1334.23,1529.06C1284.85,1611.08 1178.57,1811.92 1129.2,1923.22C1129.15,1923.33 1129.1,1923.45 1129.05,1923.56C1128.96,1923.81 1128.84,1924.07 1128.71,1924.33C1128.06,1924.06 1127.32,1923.74 1126.71,1923.4C1126.69,1923.39 1126.66,1923.38 1126.63,1923.36C1104.13,1911.36 1094.86,1892.79 1091.11,1844.78C1091.11,1844.76 1091.11,1844.75 1091.11,1844.74C1086.96,1794.22 1090.34,1682.41 1105.25,1564.8C1105.86,1559.99 1102.99,1555.41 1098.4,1553.86C1093.8,1552.3 1088.75,1554.2 1086.31,1558.39C1024,1665.57 939.531,1819.7 905.333,1920.43Z" style="fill:rgb(0,213,255);fill-rule:nonzero;"/>
            <path d="M1560.06,1802.9C1560.03,1804.07 1559.95,1805.29 1559.79,1806.42C1558.52,1815.47 1554.49,1827.45 1546.55,1838.93L1546.53,1838.95C1513.24,1887.3 1452.27,1923.87 1391.24,1924.66L1391.21,1924.66C1352.78,1925.27 1324.24,1910.86 1307.16,1886.68C1280.66,1849.15 1281.5,1789.73 1312.02,1729.16C1343.26,1667.16 1384.89,1627.1 1422.08,1610.2C1444.23,1600.13 1464.46,1598.24 1478.8,1606.5C1498.36,1618.24 1512.48,1629.92 1524.99,1647.12C1525.02,1647.16 1525.05,1647.2 1525.08,1647.24C1529.91,1653.68 1531.36,1664.2 1530.26,1676.57C1528.36,1697.99 1518.18,1724.42 1498.66,1748.13C1498.65,1748.14 1498.64,1748.15 1498.63,1748.16C1476.17,1775.67 1449.06,1794.35 1419.17,1795.07C1400.37,1795.52 1380.67,1788.73 1360.52,1773.1C1382.07,1783.79 1401.98,1780.4 1419.86,1770C1437.64,1759.66 1453.35,1741.81 1466.24,1724.91L1466.24,1724.91C1486.07,1698.88 1501.29,1668.38 1504.55,1649.16C1506.68,1636.62 1503.51,1627.6 1497.85,1623.12C1494.08,1620.09 1489.05,1618.36 1482.85,1618.52C1476.5,1618.68 1468.41,1620.99 1459.31,1625.68C1429.23,1641.16 1385,1683.87 1356.37,1741.72C1353.74,1747 1351.12,1752.27 1349.36,1756.67C1347.61,1761.04 1349.09,1766.02 1352.88,1768.73C1351.45,1768.51 1349.97,1768.6 1348.53,1769C1345.33,1769.91 1342.78,1772.32 1341.68,1775.46C1327.43,1816.45 1326.07,1851.01 1333.76,1875.63C1342.37,1903.2 1361.85,1919.35 1388.29,1920.84C1388.32,1920.84 1388.35,1920.85 1388.38,1920.85C1418.23,1922.29 1446.71,1911.85 1472.54,1894.76C1507.78,1871.43 1538.07,1835.65 1560.06,1802.9Z" style="fill:rgb(0,213,255);fill-rule:nonzero;"/>
            <path d="M1815.39,1599.85C1815.6,1600.02 1815.81,1600.19 1816.01,1600.37C1826.06,1614.02 1830.27,1646.11 1812.8,1682.54C1794.41,1720.16 1752.67,1783.62 1731.8,1827.87C1719.55,1853.72 1714.5,1874.48 1715.41,1888.78C1716,1898.13 1719.03,1905.28 1723.71,1910.29C1728.69,1915.63 1735.67,1918.87 1744.84,1919.18C1744.86,1919.18 1744.88,1919.18 1744.9,1919.18C1755.4,1919.49 1768.4,1914.37 1782.57,1903.66C1810.88,1882.25 1845.98,1837.77 1878.38,1781.39C1879.07,1780.17 1879.51,1778.83 1879.67,1777.43C1889.25,1691.24 1918.94,1639.21 1941.92,1614.74C1949.83,1606.31 1956.28,1601.25 1960.45,1600.29C1960.73,1600.32 1960.78,1600.69 1960.92,1600.97C1961.2,1601.57 1961.42,1602.24 1961.59,1602.97C1962.49,1606.62 1962.34,1611.33 1961.33,1616.64C1954.78,1649.35 1940.66,1686.09 1889.97,1771.94C1856.68,1827.74 1822.66,1872.79 1788.84,1899.46C1767.96,1915.92 1747.39,1925.27 1727.14,1924.67C1727.12,1924.67 1727.1,1924.67 1727.07,1924.67C1697.22,1923.97 1681.52,1896.16 1683.6,1866.31C1683.91,1861.84 1681.27,1857.68 1677.08,1856.08C1672.89,1854.47 1668.15,1855.79 1665.39,1859.33C1652.63,1875.67 1637.92,1891.87 1621.58,1903.63C1606.46,1914.51 1589.96,1921.62 1572.27,1920.51C1559.82,1919.71 1550.34,1915.47 1543.78,1908.25C1536.95,1900.74 1533.3,1890.29 1532.08,1878.06C1530.26,1859.8 1533.9,1837.84 1542.02,1814.74L1542.03,1814.71C1560.98,1760.33 1601.4,1679.59 1656.61,1604.61C1656.62,1604.59 1656.63,1604.58 1656.64,1604.56C1657.3,1603.65 1658.43,1602.7 1658.95,1602.28C1659.24,1602.56 1659.69,1603.01 1659.94,1603.38C1660.01,1603.5 1660.09,1603.61 1660.17,1603.73C1678.22,1628.54 1672.58,1660.6 1644.77,1704.96C1614.37,1753.08 1592.45,1792.78 1575.56,1833.3C1575.55,1833.33 1575.54,1833.35 1575.53,1833.37C1564.46,1860.49 1561.02,1883.08 1564.1,1896.52C1565.58,1902.98 1568.47,1907.86 1572.26,1911.19C1576.47,1914.89 1581.9,1916.96 1588.7,1916.68C1604.28,1916.25 1619.96,1906.38 1635.89,1888.24C1656.59,1864.68 1678.89,1826.68 1706.28,1782.54C1759.43,1697.83 1783.45,1640.49 1810.86,1604.78C1812.3,1602.9 1814.25,1600.95 1815.39,1599.85Z" style="fill:rgb(0,213,255);fill-rule:nonzero;"/>
            <path d="M2072.5,1457.67C2102.4,1455.08 2136.59,1443.46 2170.42,1431.93C2202.55,1420.98 2234.35,1410.09 2261.51,1408.46C2284.4,1407.12 2306.85,1410.48 2323.97,1424.7C2335.32,1434.12 2344.17,1448.27 2349.52,1468.49C2349.52,1468.5 2349.53,1468.51 2349.53,1468.53C2363.59,1520.85 2348.68,1564.58 2322.14,1598.95C2298.66,1628.9 2255.78,1669.31 2195.94,1695.18C2192.27,1696.77 2189.86,1700.37 2189.79,1704.37C2189.73,1708.37 2192.01,1712.04 2195.62,1713.76C2209.89,1720.51 2221.86,1731.07 2231.62,1745.33C2247.22,1768.39 2245.31,1812.07 2213.33,1847.03C2178.06,1885.5 2117.91,1913.47 2073.03,1921.49C2073.01,1921.49 2072.99,1921.49 2072.97,1921.5C2044.17,1926.8 2025.95,1926.57 2009.28,1918.23C1994.08,1910.63 1980.46,1897.65 1970.58,1883.21C1966.28,1876.9 1962.4,1871.37 1960.53,1863.96C1957.57,1852.23 1959.65,1836.35 1970.09,1807.3L1970.1,1807.28C2003.23,1714.49 2066.22,1593.55 2128.35,1500.76C2130.4,1497.71 2130.64,1493.79 2128.99,1490.51C2127.34,1487.23 2124.06,1485.09 2120.39,1484.9C2092.47,1483.51 2077.41,1468.84 2072.5,1457.67ZM2081.49,1681.18C2246.72,1642.79 2349.36,1530.13 2328.5,1473.39C2311.81,1430 2229.2,1468.38 2171.62,1486.74C2173.29,1505.1 2167.45,1530.13 2146.58,1568.52C2129.89,1599.4 2105.69,1638.62 2081.49,1681.18ZM2145.75,1722.9C2134.07,1725.4 2122.38,1727.07 2110.7,1728.74C2087.34,1731.25 2070.64,1728.74 2058.96,1722.9C2036.43,1766.3 2015.57,1810.52 2003.05,1852.25C1993.87,1881.45 2003.05,1891.47 2029.76,1888.13C2083.16,1881.45 2154.93,1847.24 2190.81,1803.01C2221.69,1764.63 2221.69,1727.07 2145.75,1722.9Z" style="fill:rgb(0,213,255);fill-rule:nonzero;"/>
            <path d="M2292.57,1943.52C2273.6,1921.25 2275.72,1888.34 2294.95,1852.01C2294.96,1852 2294.97,1851.98 2294.98,1851.96C2314.04,1815.5 2369.62,1737.62 2400.28,1693.69C2401.87,1691.42 2402.46,1688.61 2401.93,1685.9C2401.4,1683.19 2399.79,1680.8 2397.47,1679.3C2382.49,1669.57 2384.53,1651.05 2391.67,1632.62C2399.28,1612.99 2413.58,1593.18 2427.53,1580.37C2435.24,1573.29 2442.38,1568.02 2448.11,1567.87C2448.13,1567.87 2448.14,1567.87 2448.16,1567.87C2453.02,1567.71 2453.75,1572.43 2454.27,1578.32C2455.84,1596.05 2448.49,1624.3 2436.69,1654.05C2435.36,1657.4 2435.89,1661.2 2438.1,1664.05C2440.31,1666.9 2443.85,1668.38 2447.43,1667.93C2475.5,1664.42 2505.43,1650.63 2537.88,1627.84C2540.18,1626.31 2542.25,1625.08 2544.16,1624.3C2544.94,1623.98 2545.49,1623.33 2546.08,1623.65C2546.41,1623.82 2546.67,1624.13 2546.97,1624.47C2547.01,1624.51 2547.05,1624.56 2547.09,1624.6C2554.12,1632.38 2562.14,1644.38 2565.66,1657.53C2568.79,1669.21 2568.22,1681.94 2558.67,1692.8C2520.16,1736.45 2478.49,1790.55 2464.79,1835.06C2455.8,1864.27 2456.97,1889.1 2464.63,1904.49C2470.98,1917.26 2481.5,1924.54 2495,1925.02C2510.23,1925.77 2527.28,1917.31 2543.79,1901.44C2563.67,1882.33 2583.4,1852.4 2599.29,1819.09C2599.64,1827.75 2597.85,1839.28 2592.77,1851.74C2592.76,1851.77 2592.75,1851.8 2592.73,1851.83C2575.17,1896.11 2531.26,1928.69 2490.8,1927.17C2470.16,1926.31 2454.34,1918.47 2444.06,1905.64C2427.95,1885.51 2425.41,1854.14 2436.64,1820.42C2454.6,1766.55 2502.15,1708.73 2534.8,1671.18C2538.15,1667.33 2538.14,1661.61 2534.78,1657.77C2531.43,1653.94 2525.75,1653.17 2521.5,1655.97C2486.88,1678.79 2453.08,1686 2429.47,1686C2425.74,1686 2422.3,1688.05 2420.51,1691.33C2388.95,1749.48 2310.22,1866.69 2292.57,1943.52Z" style="fill:rgb(0,213,255);fill-rule:nonzero;"/>
            <path d="M2869.37,1802.9C2869.34,1804.07 2869.26,1805.29 2869.11,1806.42C2867.83,1815.47 2863.8,1827.45 2855.86,1838.93L2855.84,1838.95C2822.55,1887.3 2761.58,1923.87 2700.55,1924.66L2700.52,1924.66C2662.09,1925.27 2633.55,1910.86 2616.47,1886.68C2589.97,1849.15 2590.81,1789.73 2621.33,1729.16C2652.58,1667.16 2694.2,1627.1 2731.39,1610.2C2753.54,1600.13 2773.77,1598.24 2788.11,1606.5C2807.67,1618.24 2821.79,1629.92 2834.3,1647.12C2834.33,1647.16 2834.36,1647.2 2834.39,1647.24C2839.22,1653.68 2840.67,1664.2 2839.57,1676.57C2837.68,1697.99 2827.49,1724.42 2807.97,1748.13C2807.96,1748.14 2807.95,1748.15 2807.94,1748.16C2785.48,1775.67 2758.37,1794.35 2728.48,1795.07C2709.68,1795.52 2689.98,1788.73 2669.83,1773.1C2691.39,1783.79 2711.29,1780.4 2729.17,1770C2746.95,1759.66 2762.66,1741.81 2775.55,1724.91L2775.55,1724.91C2795.38,1698.88 2810.61,1668.38 2813.87,1649.16C2815.99,1636.62 2812.82,1627.6 2807.16,1623.12C2803.39,1620.09 2798.36,1618.36 2792.16,1618.52C2785.81,1618.68 2777.72,1620.99 2768.62,1625.68C2738.55,1641.16 2694.32,1683.87 2665.68,1741.72C2663.05,1747 2660.43,1752.27 2658.67,1756.67C2656.92,1761.04 2658.4,1766.02 2662.19,1768.73C2660.76,1768.51 2659.28,1768.6 2657.85,1769C2654.64,1769.91 2652.09,1772.32 2651,1775.46C2636.74,1816.45 2635.39,1851.01 2643.07,1875.63C2651.68,1903.2 2671.16,1919.35 2697.6,1920.84C2697.63,1920.84 2697.66,1920.85 2697.69,1920.85C2727.54,1922.29 2756.02,1911.85 2781.85,1894.76C2817.09,1871.43 2847.38,1835.65 2869.37,1802.9Z" style="fill:rgb(0,213,255);fill-rule:nonzero;"/>
            <path d="M3124.7,1599.85C3124.91,1600.02 3125.12,1600.19 3125.32,1600.37C3135.37,1614.02 3139.58,1646.11 3122.12,1682.54C3103.72,1720.16 3061.98,1783.62 3041.11,1827.87C3028.86,1853.72 3023.81,1874.48 3024.72,1888.78C3025.31,1898.13 3028.34,1905.28 3033.02,1910.29C3038,1915.63 3044.99,1918.87 3054.15,1919.18C3054.17,1919.18 3054.2,1919.18 3054.22,1919.18C3064.71,1919.49 3077.72,1914.37 3091.88,1903.66C3120.2,1882.25 3155.3,1837.77 3187.69,1781.39C3188.39,1780.17 3188.83,1778.83 3188.98,1777.43C3198.56,1691.24 3228.25,1639.21 3251.24,1614.74C3259.14,1606.31 3265.59,1601.25 3269.76,1600.29C3270.04,1600.32 3270.09,1600.69 3270.23,1600.97C3270.51,1601.57 3270.73,1602.24 3270.91,1602.97C3271.8,1606.62 3271.65,1611.33 3270.64,1616.64C3264.09,1649.35 3249.97,1686.09 3199.28,1771.94C3165.99,1827.74 3131.97,1872.79 3098.15,1899.46C3077.27,1915.92 3056.7,1925.27 3036.45,1924.67C3036.43,1924.67 3036.41,1924.67 3036.38,1924.67C3006.53,1923.97 2990.83,1896.16 2992.91,1866.31C2993.22,1861.84 2990.58,1857.68 2986.39,1856.08C2982.2,1854.47 2977.46,1855.79 2974.7,1859.33C2961.94,1875.67 2947.24,1891.87 2930.89,1903.63C2915.77,1914.51 2899.28,1921.62 2881.58,1920.51C2869.13,1919.71 2859.65,1915.47 2853.09,1908.25C2846.26,1900.74 2842.61,1890.29 2841.39,1878.06C2839.57,1859.8 2843.21,1837.84 2851.33,1814.74L2851.34,1814.71C2870.29,1760.33 2910.71,1679.59 2965.92,1604.61C2965.93,1604.59 2965.94,1604.58 2965.95,1604.56C2966.61,1603.65 2967.74,1602.7 2968.26,1602.28C2968.55,1602.56 2969,1603.01 2969.25,1603.38C2969.33,1603.5 2969.4,1603.61 2969.49,1603.73C2987.53,1628.54 2981.89,1660.6 2954.08,1704.96C2923.68,1753.08 2901.76,1792.78 2884.87,1833.3C2884.86,1833.33 2884.85,1833.35 2884.84,1833.37C2873.77,1860.49 2870.33,1883.08 2873.41,1896.52C2874.89,1902.98 2877.78,1907.86 2881.57,1911.19C2885.78,1914.89 2891.21,1916.96 2898.01,1916.68C2913.59,1916.25 2929.27,1906.38 2945.2,1888.24C2965.9,1864.68 2988.2,1826.68 3015.59,1782.54C3068.74,1697.83 3092.76,1640.49 3120.17,1604.78C3121.61,1602.9 3123.56,1600.95 3124.7,1599.85Z" style="fill:rgb(0,213,255);fill-rule:nonzero;"/>
        </g>
    </g>
</svg>
